<svg width="31" height="31" viewBox="0 0 31 31" fill="none" xmlns="http://www.w3.org/2000/svg">
<rect x="15.7436" y="6" width="4.38462" height="4.38462" rx="1.5" fill="white"/>
<rect x="15.7436" y="6" width="4.38462" height="4.38462" rx="1.5" fill="white"/>
<rect x="15.7436" y="6" width="4.38462" height="4.38462" rx="1.5" fill="white"/>
<rect x="15.7436" y="10.8718" width="4.38462" height="4.38462" rx="1.5" fill="white"/>
<rect x="20.6154" y="10.8718" width="4.38462" height="4.38462" rx="1.5" fill="white"/>
<rect x="20.6154" y="6" width="4.38462" height="4.38462" rx="1.5" fill="white"/>
<rect x="6" y="6" width="4.38462" height="4.38462" rx="1.5" fill="white"/>
<rect x="6" y="6" width="4.38462" height="4.38462" rx="1.5" fill="white"/>
<rect x="6" y="6" width="4.38462" height="4.38462" rx="1.5" fill="white"/>
<rect x="6" y="10.8718" width="4.38462" height="4.38462" rx="1.5" fill="white"/>
<rect x="10.8718" y="10.8718" width="4.38462" height="4.38462" rx="1.5" fill="white"/>
<rect x="10.8718" y="6" width="4.38462" height="4.38462" rx="1.5" fill="white"/>
<rect x="15.7436" y="15.7436" width="4.38462" height="4.38462" rx="1.5" fill="white"/>
<rect x="15.7436" y="15.7436" width="4.38462" height="4.38462" rx="1.5" fill="white"/>
<rect x="15.7436" y="15.7436" width="4.38462" height="4.38462" rx="1.5" fill="white"/>
<rect x="15.7436" y="20.6154" width="4.38462" height="4.38462" rx="1.5" fill="white"/>
<rect x="20.6154" y="20.6154" width="4.38462" height="4.38462" rx="1.5" fill="white"/>
<rect x="20.6154" y="15.7436" width="4.38462" height="4.38462" rx="1.5" fill="white"/>
<rect x="6" y="15.7436" width="4.38462" height="4.38462" rx="1.5" fill="white"/>
<rect x="6" y="15.7436" width="4.38462" height="4.38462" rx="1.5" fill="white"/>
<rect x="6" y="15.7436" width="4.38462" height="4.38462" rx="1.5" fill="white"/>
<rect x="6" y="20.6154" width="4.38462" height="4.38462" rx="1.5" fill="white"/>
<rect x="10.8718" y="20.6154" width="4.38462" height="4.38462" rx="1.5" fill="white"/>
<rect x="10.8718" y="15.7436" width="4.38462" height="4.38462" rx="1.5" fill="white"/>
</svg>
